<svg width="178" height="178" viewBox="0 0 178 178" fill="none" xmlns="http://www.w3.org/2000/svg">
<path d="M177.64 89.0004C177.64 137.956 137.955 177.641 88.9994 177.641C73.2514 177.641 58.4643 173.534 45.6467 166.334C41.1759 163.824 36.9473 160.936 32.9996 157.713C13.0781 141.46 0.358398 116.716 0.358398 89.0004C0.358398 81.1167 1.38818 73.4742 3.31891 66.1998C3.55626 65.3095 3.80426 64.427 4.06679 63.5512C15.0031 26.9992 48.8911 0.359375 88.9994 0.359375C102.09 0.359375 114.519 3.19783 125.704 8.29251C128.98 9.78536 132.15 11.471 135.197 13.3378C137.289 14.6156 139.322 15.9776 141.294 17.422C141.92 17.8812 142.542 18.3491 143.157 18.8229C164.134 35.035 177.641 60.4396 177.641 89.0014L177.64 89.0004Z" fill="#CDC8E8"/>
<path opacity="0.6" d="M143.325 18.4654L143.156 18.8219L110.363 88.1731L108.417 92.2874L103.363 102.978L103.031 103.676L99.7055 110.71L99.0177 112.165L98.3299 113.619L92.7576 125.403L91.3394 128.404L73.4087 166.325L54.1382 166.334H35.1904L32.999 157.713L31.512 151.863L15.7165 103.873L11.9141 92.3194L10.6877 88.5964L6.96667 77.2911L3.31641 66.1988C3.55375 65.3085 3.80175 64.426 4.06428 63.5503C4.9226 60.6924 5.89039 57.9024 6.96667 55.188C7.63124 53.513 8.33746 51.8661 9.08534 50.2493C9.79253 48.7157 10.5404 47.2074 11.3212 45.73C13.9078 40.8456 16.8983 36.2653 20.288 32.0367C35.3977 13.1847 58.4443 1.29809 88.9969 0.358398C102.088 0.358398 114.517 3.19685 125.701 8.29153C128.977 9.78438 132.147 11.47 135.195 13.3368C137.314 14.8665 139.287 16.2847 141.291 17.4211C141.962 17.8037 142.637 18.1535 143.323 18.4654H143.325Z" fill="white"/>
<path d="M24.1032 164.646C25.102 166.78 27.2449 168.144 29.6018 168.144H67.4336L50.4901 131.932H8.7959L24.1022 164.646L24.1032 164.646Z" fill="#AEAEB2"/>
<path d="M92.2684 164.508C92.2684 166.526 90.6331 168.161 88.6152 168.161H53.7304L52.0215 164.508H92.2684Z" fill="#AEAEB2"/>
<path d="M36.8102 150.312C38.0234 149.662 38.4805 148.152 37.831 146.939C37.1816 145.726 35.6716 145.269 34.4584 145.918C33.2452 146.568 32.7882 148.078 33.4376 149.291C34.087 150.504 35.597 150.961 36.8102 150.312Z" fill="#F2E6DC"/>
<path d="M86.5533 170.074H51.6685C51.6482 170.074 51.6288 170.068 51.6133 170.057H27.5407C25.1576 170.057 22.9653 168.662 21.9549 166.504L6.64855 133.789C6.63499 133.759 6.63692 133.724 6.65436 133.696C6.6718 133.668 6.7028 133.651 6.73574 133.651H48.43C48.4677 133.651 48.5016 133.672 48.5181 133.707L63.7343 166.228H90.2075C90.2608 166.228 90.3044 166.272 90.3044 166.325C90.3044 168.393 88.6216 170.075 86.5543 170.075L86.5533 170.074ZM51.716 169.881H86.5533C88.4821 169.881 90.0564 168.337 90.1087 166.421H63.6723C63.6346 166.421 63.6007 166.4 63.5842 166.365L48.368 133.844H6.88783L22.1302 166.42C23.1087 168.511 25.2322 169.862 27.5407 169.862H51.6608C51.6811 169.862 51.7005 169.869 51.716 169.88V169.881Z" fill="#363E44"/>
<path d="M65.4926 22.041H43.0059V58.2521H65.4926V22.041Z" fill="#D3BBA3"/>
<path d="M29.2288 32.0366H11.3262V61.914H29.2288V32.0366Z" fill="#D3BBA3"/>
<path d="M84.1825 10.4617H61.877V71.3004H84.1825V10.4617Z" fill="#FFEBBF"/>
<path d="M84.1827 15.1647H61.8771C61.8239 15.1647 61.7803 15.1211 61.7803 15.0678C61.7803 15.0145 61.8239 14.9709 61.8771 14.9709H84.1827C84.236 14.9709 84.2796 15.0145 84.2796 15.0678C84.2796 15.1211 84.236 15.1647 84.1827 15.1647Z" fill="white"/>
<path d="M84.1827 19.7714H61.8771C61.8239 19.7714 61.7803 19.7278 61.7803 19.6745C61.7803 19.6212 61.8239 19.5776 61.8771 19.5776H84.1827C84.236 19.5776 84.2796 19.6212 84.2796 19.6745C84.2796 19.7278 84.236 19.7714 84.1827 19.7714Z" fill="white"/>
<path d="M84.1827 24.3776H61.8771C61.8239 24.3776 61.7803 24.334 61.7803 24.2807C61.7803 24.2274 61.8239 24.1838 61.8771 24.1838H84.1827C84.236 24.1838 84.2796 24.2274 84.2796 24.2807C84.2796 24.334 84.236 24.3776 84.1827 24.3776Z" fill="white"/>
<path d="M84.1827 28.9831H61.8771C61.8239 28.9831 61.7803 28.9395 61.7803 28.8862C61.7803 28.8329 61.8239 28.7893 61.8771 28.7893H84.1827C84.236 28.7893 84.2796 28.8329 84.2796 28.8862C84.2796 28.9395 84.236 28.9831 84.1827 28.9831Z" fill="white"/>
<path d="M84.1827 33.5897H61.8771C61.8239 33.5897 61.7803 33.5462 61.7803 33.4929C61.7803 33.4396 61.8239 33.396 61.8771 33.396H84.1827C84.236 33.396 84.2796 33.4396 84.2796 33.4929C84.2796 33.5462 84.236 33.5897 84.1827 33.5897Z" fill="white"/>
<path d="M84.1827 38.1959H61.8771C61.8239 38.1959 61.7803 38.1524 61.7803 38.0991C61.7803 38.0458 61.8239 38.0022 61.8771 38.0022H84.1827C84.236 38.0022 84.2796 38.0458 84.2796 38.0991C84.2796 38.1524 84.236 38.1959 84.1827 38.1959Z" fill="white"/>
<path d="M84.1827 42.8024H61.8771C61.8239 42.8024 61.7803 42.7588 61.7803 42.7055C61.7803 42.6522 61.8239 42.6086 61.8771 42.6086H84.1827C84.236 42.6086 84.2796 42.6522 84.2796 42.7055C84.2796 42.7588 84.236 42.8024 84.1827 42.8024Z" fill="white"/>
<path d="M84.1827 47.4088H61.8771C61.8239 47.4088 61.7803 47.3652 61.7803 47.312C61.7803 47.2587 61.8239 47.2151 61.8771 47.2151H84.1827C84.236 47.2151 84.2796 47.2587 84.2796 47.312C84.2796 47.3652 84.236 47.4088 84.1827 47.4088Z" fill="white"/>
<path d="M84.1827 52.0143H61.8771C61.8239 52.0143 61.7803 51.9707 61.7803 51.9174C61.7803 51.8642 61.8239 51.8206 61.8771 51.8206H84.1827C84.236 51.8206 84.2796 51.8642 84.2796 51.9174C84.2796 51.9707 84.236 52.0143 84.1827 52.0143Z" fill="white"/>
<path d="M66.2551 71.3972C66.2018 71.3972 66.1582 71.3537 66.1582 71.3004V10.4616C66.1582 10.4083 66.2018 10.3647 66.2551 10.3647C66.3084 10.3647 66.352 10.4083 66.352 10.4616V71.3004C66.352 71.3537 66.3084 71.3972 66.2551 71.3972Z" fill="white"/>
<path d="M73.1691 71.3972C73.1159 71.3972 73.0723 71.3537 73.0723 71.3004V10.4616C73.0723 10.4083 73.1159 10.3647 73.1691 10.3647C73.2224 10.3647 73.266 10.4083 73.266 10.4616V71.3004C73.266 71.3537 73.2224 71.3972 73.1691 71.3972Z" fill="white"/>
<path d="M80.0842 71.3972C80.0309 71.3972 79.9873 71.3537 79.9873 71.3004V10.4616C79.9873 10.4083 80.0309 10.3647 80.0842 10.3647C80.1375 10.3647 80.1811 10.4083 80.1811 10.4616V71.3004C80.1811 71.3537 80.1375 71.3972 80.0842 71.3972Z" fill="white"/>
<path d="M53.6334 33.7825H32.3799V71.2365H53.6334V33.7825Z" fill="#E6D0BE"/>
<path d="M36.5264 37.1992H34.8389V40.1733H36.5264V37.1992Z" fill="#F2E6DC"/>
<path d="M41.3604 37.1992H39.6729V40.1733H41.3604V37.1992Z" fill="#F2E6DC"/>
<path d="M46.1934 37.1992H44.5059V40.1733H46.1934V37.1992Z" fill="#F2E6DC"/>
<path d="M51.0274 37.1992H49.3398V40.1733H51.0274V37.1992Z" fill="#F2E6DC"/>
<path d="M36.5264 44.002H34.8389V46.976H36.5264V44.002Z" fill="#F2E6DC"/>
<path d="M41.3604 44.002H39.6729V46.976H41.3604V44.002Z" fill="#F2E6DC"/>
<path d="M46.1934 44.002H44.5059V46.976H46.1934V44.002Z" fill="#F2E6DC"/>
<path d="M51.0274 44.002H49.3398V46.976H51.0274V44.002Z" fill="#F2E6DC"/>
<path d="M36.5264 50.8044H34.8389V53.7785H36.5264V50.8044Z" fill="#F2E6DC"/>
<path d="M41.3604 50.8044H39.6729V53.7785H41.3604V50.8044Z" fill="#F2E6DC"/>
<path d="M46.1934 50.8044H44.5059V53.7785H46.1934V50.8044Z" fill="#F2E6DC"/>
<path d="M51.0274 50.8044H49.3398V53.7785H51.0274V50.8044Z" fill="#F2E6DC"/>
<path d="M36.5264 57.6069H34.8389V60.581H36.5264V57.6069Z" fill="#F2E6DC"/>
<path d="M41.3604 57.6069H39.6729V60.581H41.3604V57.6069Z" fill="#F2E6DC"/>
<path d="M46.1934 57.6069H44.5059V60.581H46.1934V57.6069Z" fill="#F2E6DC"/>
<path d="M51.0274 57.6069H49.3398V60.581H51.0274V57.6069Z" fill="#F2E6DC"/>
<path d="M36.5264 64.4087H34.8389V67.3828H36.5264V64.4087Z" fill="#F2E6DC"/>
<path d="M41.3604 64.4087H39.6729V67.3828H41.3604V64.4087Z" fill="#F2E6DC"/>
<path d="M46.1934 64.4087H44.5059V67.3828H46.1934V64.4087Z" fill="#F2E6DC"/>
<path d="M51.0274 64.4087H49.3398V67.3828H51.0274V64.4087Z" fill="#F2E6DC"/>
<path d="M92.3451 36.3826H65.7344V104.75H92.3451V36.3826Z" fill="#D3BBA3"/>
<path d="M70.9254 40.9368H68.8125V44.9019H70.9254V40.9368Z" fill="#F2E6DC"/>
<path d="M76.9781 40.9368H74.8652V44.9019H76.9781V40.9368Z" fill="#F2E6DC"/>
<path d="M83.0298 40.9368H80.917V44.9019H83.0298V40.9368Z" fill="#F2E6DC"/>
<path d="M89.0816 40.9368H86.9688V44.9019H89.0816V40.9368Z" fill="#F2E6DC"/>
<path d="M70.9254 49.6313H68.8125V53.5965H70.9254V49.6313Z" fill="#F2E6DC"/>
<path d="M76.9781 49.6313H74.8652V53.5965H76.9781V49.6313Z" fill="#F2E6DC"/>
<path d="M83.0298 49.6313H80.917V53.5965H83.0298V49.6313Z" fill="#F2E6DC"/>
<path d="M89.0816 49.6313H86.9688V53.5965H89.0816V49.6313Z" fill="#F2E6DC"/>
<path d="M70.9254 58.325H68.8125V62.2901H70.9254V58.325Z" fill="#F2E6DC"/>
<path d="M76.9781 58.325H74.8652V62.2901H76.9781V58.325Z" fill="#F2E6DC"/>
<path d="M83.0298 58.325H80.917V62.2901H83.0298V58.325Z" fill="#F2E6DC"/>
<path d="M89.0816 58.325H86.9688V62.2901H89.0816V58.325Z" fill="#F2E6DC"/>
<path d="M70.9254 67.0195H68.8125V70.9846H70.9254V67.0195Z" fill="#F2E6DC"/>
<path d="M76.9781 67.0195H74.8652V70.9846H76.9781V67.0195Z" fill="#F2E6DC"/>
<path d="M83.0298 67.0195H80.917V70.9846H83.0298V67.0195Z" fill="#F2E6DC"/>
<path d="M89.0816 67.0195H86.9688V70.9846H89.0816V67.0195Z" fill="#F2E6DC"/>
<path d="M70.9254 75.7131H68.8125V79.6783H70.9254V75.7131Z" fill="#F2E6DC"/>
<path d="M76.9781 75.7131H74.8652V79.6783H76.9781V75.7131Z" fill="#F2E6DC"/>
<path d="M83.0298 75.7131H80.917V79.6783H83.0298V75.7131Z" fill="#F2E6DC"/>
<path d="M89.0816 75.7131H86.9688V79.6783H89.0816V75.7131Z" fill="#F2E6DC"/>
<path d="M70.9254 84.4067H68.8125V88.3719H70.9254V84.4067Z" fill="#F2E6DC"/>
<path d="M76.9781 84.4067H74.8652V88.3719H76.9781V84.4067Z" fill="#F2E6DC"/>
<path d="M83.0298 84.4067H80.917V88.3719H83.0298V84.4067Z" fill="#F2E6DC"/>
<path d="M89.0816 84.4067H86.9688V88.3719H89.0816V84.4067Z" fill="#F2E6DC"/>
<path d="M70.9254 93.1013H68.8125V97.0664H70.9254V93.1013Z" fill="#F2E6DC"/>
<path d="M76.9781 93.1013H74.8652V97.0664H76.9781V93.1013Z" fill="#F2E6DC"/>
<path d="M83.0298 93.1013H80.917V97.0664H83.0298V93.1013Z" fill="#F2E6DC"/>
<path d="M89.0816 93.1013H86.9688V97.0664H89.0816V93.1013Z" fill="#F2E6DC"/>
<path d="M72.1527 50.2502H45.542V97.1447H72.1527V50.2502Z" fill="white"/>
<path d="M50.733 54.5278H48.6201V58.2517H50.733V54.5278Z" fill="#D3BBA3"/>
<path d="M56.7847 54.5278H54.6719V58.2517H56.7847V54.5278Z" fill="#D3BBA3"/>
<path d="M62.8375 54.5278H60.7246V58.2517H62.8375V54.5278Z" fill="#D3BBA3"/>
<path d="M68.8892 54.5278H66.7764V58.2517H68.8892V54.5278Z" fill="#D3BBA3"/>
<path d="M50.733 63.0454H48.6201V66.7693H50.733V63.0454Z" fill="#D3BBA3"/>
<path d="M56.7847 63.0454H54.6719V66.7693H56.7847V63.0454Z" fill="#D3BBA3"/>
<path d="M62.8375 63.0454H60.7246V66.7693H62.8375V63.0454Z" fill="#D3BBA3"/>
<path d="M68.8892 63.0454H66.7764V66.7693H68.8892V63.0454Z" fill="#D3BBA3"/>
<path d="M50.733 71.5625H48.6201V75.2864H50.733V71.5625Z" fill="#D3BBA3"/>
<path d="M56.7847 71.5625H54.6719V75.2864H56.7847V71.5625Z" fill="#D3BBA3"/>
<path d="M62.8375 71.5625H60.7246V75.2864H62.8375V71.5625Z" fill="#D3BBA3"/>
<path d="M68.8892 71.5625H66.7764V75.2864H68.8892V71.5625Z" fill="#D3BBA3"/>
<path d="M50.733 80.0789H48.6201V83.8027H50.733V80.0789Z" fill="#D3BBA3"/>
<path d="M56.7847 80.0789H54.6719V83.8027H56.7847V80.0789Z" fill="#D3BBA3"/>
<path d="M62.8375 80.0789H60.7246V83.8027H62.8375V80.0789Z" fill="#D3BBA3"/>
<path d="M68.8892 80.0789H66.7764V83.8027H68.8892V80.0789Z" fill="#D3BBA3"/>
<path d="M50.733 88.5962H48.6201V92.3201H50.733V88.5962Z" fill="#D3BBA3"/>
<path d="M56.7847 88.5962H54.6719V92.3201H56.7847V88.5962Z" fill="#D3BBA3"/>
<path d="M62.8375 88.5962H60.7246V92.3201H62.8375V88.5962Z" fill="#D3BBA3"/>
<path d="M68.8892 88.5962H66.7764V92.3201H68.8892V88.5962Z" fill="#D3BBA3"/>
<path d="M33.5824 50.2502V103.873H15.7195L11.9172 92.3194L10.6917 88.5964L6.9707 77.2911V50.2502H33.5824Z" fill="#FFEBBF"/>
<path d="M12.1627 54.5276H10.0498V58.2515H12.1627V54.5276Z" fill="white"/>
<path d="M18.2164 54.5276H16.1035V58.2515H18.2164V54.5276Z" fill="white"/>
<path d="M24.2672 54.5276H22.1543V58.2515H24.2672V54.5276Z" fill="white"/>
<path d="M30.3189 54.5276H28.2061V58.2515H30.3189V54.5276Z" fill="white"/>
<path d="M12.1627 63.0454H10.0498V66.7693H12.1627V63.0454Z" fill="white"/>
<path d="M18.2164 63.0457H16.1035V66.7695H18.2164V63.0457Z" fill="white"/>
<path d="M24.2672 63.0457H22.1543V66.7695H24.2672V63.0457Z" fill="white"/>
<path d="M30.3189 63.0457H28.2061V66.7695H30.3189V63.0457Z" fill="white"/>
<path d="M12.1627 71.5625H10.0498V75.2864H12.1627V71.5625Z" fill="white"/>
<path d="M18.2164 71.5625H16.1035V75.2864H18.2164V71.5625Z" fill="white"/>
<path d="M24.2672 71.5625H22.1543V75.2864H24.2672V71.5625Z" fill="white"/>
<path d="M30.3189 71.5625H28.2061V75.2864H30.3189V71.5625Z" fill="white"/>
<path d="M12.1627 80.0789H10.0498V83.8027H12.1627V80.0789Z" fill="white"/>
<path d="M18.2164 80.0789H16.1035V83.8027H18.2164V80.0789Z" fill="white"/>
<path d="M24.2672 80.0789H22.1543V83.8027H24.2672V80.0789Z" fill="white"/>
<path d="M30.3189 80.0789H28.2061V83.8027H30.3189V80.0789Z" fill="white"/>
<path d="M12.1639 88.5962V92.3191H11.9179L10.6924 88.5962H12.1639Z" fill="white"/>
<path d="M18.2154 88.5962H16.1025V92.3201H18.2154V88.5962Z" fill="white"/>
<path d="M24.2672 88.5962H22.1543V92.3201H24.2672V88.5962Z" fill="white"/>
<path d="M30.3189 88.5962H28.2061V92.3201H30.3189V88.5962Z" fill="white"/>
<path d="M110.365 60.7207V88.1742L108.419 92.2876L103.365 102.978L103.034 103.676L99.7087 110.71L99.0209 112.164L98.3331 113.62L92.7608 125.403L91.3416 128.404H73.5029V60.7207H110.365Z" fill="#E6D0BE"/>
<path d="M97.2465 80.6162C97.2213 80.6162 97.1971 80.6065 97.1778 80.5881C97.14 80.5503 97.14 80.4893 97.1778 80.4515L107.317 70.3145C107.355 70.2767 107.416 70.2767 107.453 70.3145C107.491 70.3523 107.491 70.4133 107.453 70.4511L97.3143 80.5881C97.295 80.6075 97.2707 80.6162 97.2456 80.6162H97.2465Z" fill="#D3BBA3"/>
<path d="M77.9077 99.9506C77.8825 99.9506 77.8583 99.9409 77.8389 99.9225C77.8011 99.8847 77.8011 99.8237 77.8389 99.7859L93.9599 83.6677C93.9977 83.63 94.0587 83.63 94.0965 83.6677C94.1343 83.7055 94.1343 83.7666 94.0965 83.8043L77.9755 99.9225C77.9561 99.9418 77.9319 99.9506 77.9067 99.9506H77.9077Z" fill="#D3BBA3"/>
<path d="M101.133 85.2147C101.108 85.2147 101.084 85.205 101.064 85.1866C101.027 85.1488 101.027 85.0878 101.064 85.05L104.586 81.5296C104.624 81.4918 104.685 81.4918 104.722 81.5296C104.76 81.5673 104.76 81.6284 104.722 81.6662L101.201 85.1866C101.182 85.206 101.157 85.2147 101.132 85.2147H101.133Z" fill="#D3BBA3"/>
<path d="M90.6215 95.7239C90.5963 95.7239 90.5721 95.7142 90.5528 95.6958C90.515 95.658 90.515 95.5969 90.5528 95.5592L98.1788 87.9341C98.2166 87.8963 98.2776 87.8963 98.3154 87.9341C98.3532 87.9719 98.3532 88.0329 98.3154 88.0707L90.6893 95.6958C90.67 95.7151 90.6457 95.7239 90.6206 95.7239H90.6215Z" fill="#D3BBA3"/>
<path d="M84.7231 101.622C84.6979 101.622 84.6737 101.613 84.6543 101.594C84.6165 101.557 84.6165 101.496 84.6543 101.458L88.9585 97.1546C88.9963 97.1168 89.0573 97.1168 89.0951 97.1546C89.1329 97.1923 89.1329 97.2534 89.0951 97.2911L84.7909 101.594C84.7715 101.614 84.7473 101.622 84.7221 101.622H84.7231Z" fill="#D3BBA3"/>
<path d="M94.3151 72.3689H89.5498V80.1761H94.3151V72.3689Z" fill="white"/>
<path d="M79.7331 83.1919H74.9678V90.9991H79.7331V83.1919Z" fill="white"/>
<path d="M112.268 61.4152H71.5977V57.7795L112.268 47.9592V61.4152Z" fill="#D3BBA3"/>
<path d="M80.8303 112.862C80.777 112.862 80.7334 112.818 80.7334 112.765V63.2395C80.7334 63.1862 80.777 63.1426 80.8303 63.1426C80.8836 63.1426 80.9271 63.1862 80.9271 63.2395V112.765C80.9271 112.818 80.8836 112.862 80.8303 112.862Z" fill="#776E42"/>
<path d="M88.2316 112.862C88.1784 112.862 88.1348 112.818 88.1348 112.765V63.2395C88.1348 63.1862 88.1784 63.1426 88.2316 63.1426C88.2849 63.1426 88.3285 63.1862 88.3285 63.2395V112.765C88.3285 112.818 88.2849 112.862 88.2316 112.862Z" fill="#776E42"/>
<path d="M95.633 112.862C95.5797 112.862 95.5361 112.818 95.5361 112.765V63.2395C95.5361 63.1862 95.5797 63.1426 95.633 63.1426C95.6863 63.1426 95.7299 63.1862 95.7299 63.2395V112.765C95.7299 112.818 95.6863 112.862 95.633 112.862Z" fill="#776E42"/>
<path d="M103.033 103.773C102.98 103.773 102.937 103.73 102.937 103.676V63.2385C102.937 63.1852 102.98 63.1416 103.033 63.1416C103.087 63.1416 103.13 63.1852 103.13 63.2385V103.676C103.13 103.73 103.087 103.773 103.033 103.773Z" fill="#776E42"/>
<path d="M109.141 71.0031H74.7238C74.6705 71.0031 74.627 70.9595 74.627 70.9062C74.627 70.8529 74.6705 70.8093 74.7238 70.8093H109.141C109.194 70.8093 109.238 70.8529 109.238 70.9062C109.238 70.9595 109.194 71.0031 109.141 71.0031Z" fill="#776E42"/>
<path d="M109.141 81.6942H74.7238C74.6705 81.6942 74.627 81.6506 74.627 81.5974C74.627 81.5441 74.6705 81.5005 74.7238 81.5005H109.141C109.194 81.5005 109.238 81.5441 109.238 81.5974C109.238 81.6506 109.194 81.6942 109.141 81.6942Z" fill="#776E42"/>
<path d="M108.418 92.3844H74.7238C74.6705 92.3844 74.627 92.3408 74.627 92.2875C74.627 92.2343 74.6705 92.1907 74.7238 92.1907H108.418C108.471 92.1907 108.515 92.2343 108.515 92.2875C108.515 92.3408 108.471 92.3844 108.418 92.3844Z" fill="#776E42"/>
<path d="M103.364 103.075H74.7238C74.6705 103.075 74.627 103.031 74.627 102.978C74.627 102.924 74.6705 102.881 74.7238 102.881H103.364C103.417 102.881 103.461 102.924 103.461 102.978C103.461 103.031 103.417 103.075 103.364 103.075Z" fill="#776E42"/>
<path d="M99.0213 112.164L98.3335 113.619L92.7612 125.403H81.5537V112.164H99.0213Z" fill="#363E44"/>
<path d="M79.7326 125.5C79.6793 125.5 79.6357 125.457 79.6357 125.403V112.165C79.6357 112.112 79.6793 112.068 79.7326 112.068C79.7859 112.068 79.8295 112.112 79.8295 112.165V125.403C79.8295 125.457 79.7859 125.5 79.7326 125.5Z" fill="#F7F1EB"/>
<path d="M83.3723 125.5C83.319 125.5 83.2754 125.457 83.2754 125.403V112.165C83.2754 112.112 83.319 112.068 83.3723 112.068C83.4255 112.068 83.4691 112.112 83.4691 112.165V125.403C83.4691 125.457 83.4255 125.5 83.3723 125.5Z" fill="#E6D0BE"/>
<path d="M99.7089 110.71L99.0211 112.164L98.3333 113.619H78.7402V110.71H99.7089Z" fill="white"/>
<path d="M76.4689 127.378C76.4157 127.378 76.3721 127.334 76.3721 127.281V125.403C76.3721 125.35 76.4157 125.306 76.4689 125.306H92.7595C92.8128 125.306 92.8564 125.35 92.8564 125.403C92.8564 125.457 92.8128 125.5 92.7595 125.5H76.5658V127.281C76.5658 127.334 76.5222 127.378 76.4689 127.378Z" fill="#F7F1EB"/>
<path d="M67.3604 86.2937H61.1865V128.404H67.3604V86.2937Z" fill="#D3BBA3"/>
<path d="M61.3887 96.6343H55.2148V128.405H61.3887V96.6343Z" fill="#D3BBA3"/>
<path d="M55.1875 105.742H49.0137V128.405H55.1875V105.742Z" fill="#D3BBA3"/>
<path d="M49.0137 112.165H42.8398V128.405H49.0137V112.165Z" fill="#D3BBA3"/>
<path d="M43.043 112.165H36.8691V128.405H43.043V112.165Z" fill="#D3BBA3"/>
<path d="M36.8692 120.284H30.6953V128.405H36.8692V120.284Z" fill="#D3BBA3"/>
<path d="M73.6473 66.3955H67.3311V128.405H73.6473V66.3955Z" fill="#D3BBA3"/>
<path d="M67.3313 128.502C67.278 128.502 67.2344 128.458 67.2344 128.405L67.2634 86.2939C67.2634 86.2406 67.307 86.197 67.3603 86.197C67.4136 86.197 67.4572 86.2406 67.4572 86.2939L67.4281 128.405C67.4281 128.458 67.3845 128.502 67.3313 128.502Z" fill="#F7F1EB"/>
<path d="M61.3889 128.502C61.3356 128.502 61.292 128.458 61.292 128.405V96.6345C61.292 96.5812 61.3356 96.5376 61.3889 96.5376C61.4421 96.5376 61.4857 96.5812 61.4857 96.6345V128.405C61.4857 128.458 61.4421 128.502 61.3889 128.502Z" fill="#F7F1EB"/>
<path d="M55.1867 128.502C55.1334 128.502 55.0898 128.458 55.0898 128.405V105.742C55.0898 105.688 55.1334 105.645 55.1867 105.645C55.24 105.645 55.2836 105.688 55.2836 105.742V128.405C55.2836 128.458 55.24 128.502 55.1867 128.502Z" fill="#F7F1EB"/>
<path d="M49.0139 128.502C48.9606 128.502 48.917 128.458 48.917 128.405V112.165C48.917 112.111 48.9606 112.068 49.0139 112.068C49.0671 112.068 49.1107 112.111 49.1107 112.165V128.405C49.1107 128.458 49.0671 128.502 49.0139 128.502Z" fill="#F7F1EB"/>
<path d="M36.8684 128.502C36.8151 128.502 36.7715 128.458 36.7715 128.405V120.285C36.7715 120.231 36.8151 120.188 36.8684 120.188C36.9216 120.188 36.9652 120.231 36.9652 120.285V128.405C36.9652 128.458 36.9216 128.502 36.8684 128.502Z" fill="#F7F1EB"/>
<path d="M73.6467 128.502C73.5934 128.502 73.5498 128.458 73.5498 128.405V66.3947C73.5498 66.3414 73.5934 66.2979 73.6467 66.2979C73.7 66.2979 73.7436 66.3414 73.7436 66.3947V128.405C73.7436 128.458 73.7 128.502 73.6467 128.502Z" fill="#F7F1EB"/>
<path d="M97.627 51.4933C97.4458 51.4168 97.253 51.3567 97.0505 51.318C96.8219 51.2753 96.5952 51.2579 96.3714 51.2666C96.3249 50.9934 96.2116 50.7367 96.0421 50.5149C95.7669 50.1458 95.3397 49.8697 94.8243 49.7699C94.7992 49.766 94.773 49.7612 94.7478 49.7573C94.5637 48.9029 93.842 48.1899 92.8578 47.9971C92.1012 47.8518 89.3741 47.9825 89.0002 50.9644C88.7483 50.6137 85.8818 49.9452 84.6195 51.7287C84.5023 51.8953 84.3976 52.0852 84.3095 52.2993C83.983 53.1043 84.2688 53.9481 84.8781 54.572C85.3121 55.0138 85.905 55.3451 86.5589 55.471C86.9794 55.5524 87.4008 55.5456 87.796 55.4623C87.6061 56.4281 87.3649 57.1964 88.4131 57.3998C89.3509 57.581 90.3594 57.6565 90.7217 56.8767C90.9677 57.2012 91.5848 57.4744 92.1845 57.6304C92.5197 57.7176 92.8529 57.7689 93.1116 57.7689C94.6325 57.7757 95.6274 57.2245 96.1942 56.2819C96.7454 56.3371 97.2811 56.2373 97.7471 56.0145C98.4494 55.6793 98.99 55.068 99.1653 54.2998C99.4346 53.1247 98.7662 51.9719 97.6279 51.4933H97.627ZM92.8258 52.713C92.8297 52.6917 92.8326 52.6723 92.8345 52.651C92.8365 52.649 92.8365 52.6442 92.8365 52.6423C92.8384 52.6442 92.8403 52.6461 92.8432 52.649C92.8558 52.6636 92.8684 52.6791 92.8791 52.6936C92.8616 52.7004 92.8432 52.7062 92.8258 52.713Z" fill="#128046"/>
<path d="M113.26 50.5661C113.294 48.9774 112.771 47.7761 111.182 47.2511C110.248 46.9411 108.138 47.315 107.624 48.8166C107.773 47.5737 105.8 45.7069 103.72 46.2C102.302 46.5352 101.685 47.3063 101.189 48.6674C99.6018 47.4845 97.3136 47.9544 96.5773 49.2457C96.3487 49.6468 96.1375 50.0682 96.0435 50.5148C95.9515 50.9352 95.9641 51.378 96.1607 51.8478C96.2692 52.1045 96.432 52.369 96.6626 52.6422C96.2421 52.9609 97.5635 53.0694 97.3843 53.61C97.1043 54.4557 97.269 55.3421 97.7476 56.0154C98.0702 56.4639 98.5293 56.8185 99.0912 57.0045C99.7897 57.235 100.513 57.1643 101.125 56.863C101.46 57.7775 102.195 58.5351 103.192 58.8645C104.491 59.2936 105.866 58.8751 106.718 57.9093C107.922 58.3578 109.062 57.9306 109.747 57.0917C110 57.2544 110.28 57.3891 110.582 57.4889C111.143 57.6749 111.718 57.7175 112.267 57.641C113.622 57.4482 114.818 56.5153 115.277 55.129C115.884 53.299 114.987 51.3334 113.261 50.5671L113.26 50.5661ZM106.616 52.9222C106.628 52.8882 106.641 52.8563 106.654 52.8243C106.672 52.8437 106.688 52.865 106.706 52.8863C106.676 52.897 106.646 52.9096 106.616 52.9222Z" fill="#128046"/>
<path d="M88.6847 54.1129C88.1035 54.0547 87.5377 54.1109 87.0146 54.2582C87.0214 54.1894 87.0252 54.1216 87.0252 54.0557C87.0233 52.8806 86.0129 51.8682 84.644 51.7317C84.6353 51.7317 84.6295 51.7297 84.6208 51.7297C83.3372 51.6125 82.1669 52.3042 81.7823 53.3379C81.1924 52.7295 80.3496 52.3081 79.3711 52.2102C77.7097 52.0455 76.18 52.8612 75.5436 54.1303C73.6555 54.1051 72.0154 55.3325 71.7945 57.0027C71.7625 57.2507 71.7625 57.4957 71.7945 57.7331C71.9805 59.2027 73.3086 60.4204 75.065 60.5929C75.3789 60.6248 75.6889 60.6209 75.9902 60.5861C76.0027 60.6306 76.0183 60.6762 76.0367 60.7207C76.1268 60.9726 76.2653 61.208 76.4464 61.4153C76.8737 61.9133 77.5227 62.261 78.2851 62.3356C78.321 62.3395 78.3559 62.3424 78.3917 62.3444C78.7269 63.3247 79.6433 64.1065 80.831 64.339C80.9482 64.3642 81.0684 64.3817 81.1895 64.3942C82.2338 64.4969 83.219 64.1676 83.9088 63.566C84.336 64.029 84.9618 64.3497 85.6922 64.4243C86.7259 64.527 87.6898 64.1065 88.2323 63.3993C88.4629 63.0981 88.6188 62.7454 88.6682 62.3608C88.7128 62.0344 88.675 61.7137 88.5704 61.4144C88.5191 61.2671 88.4512 61.1237 88.3679 60.9871C88.8591 60.9716 89.3309 60.8806 89.7649 60.7198C91.0398 60.2538 91.995 59.2163 92.1635 57.9327C92.1761 57.83 92.1848 57.7302 92.1868 57.6294C92.2449 55.8605 90.7385 54.3192 88.6857 54.1119L88.6847 54.1129ZM80.5869 58.3395C80.585 58.3715 80.583 58.4015 80.5801 58.4316C80.5588 58.4122 80.5375 58.3909 80.5142 58.3715C80.5394 58.3608 80.5637 58.3502 80.5869 58.3395Z" fill="#128046"/>
<path d="M50.6129 109.258C48.8488 112.224 47.6931 113.25 47.1545 113.023C46.6158 112.796 46.8987 111.402 48.6628 108.437C50.4269 105.471 53.5415 102.283 53.5415 102.283C53.5415 102.283 52.376 106.292 50.6129 109.258Z" fill="#128046"/>
<path d="M41.4612 108.539C42.5559 112.077 42.5307 113.623 41.9485 113.751C41.3663 113.879 40.4469 112.539 39.3522 109.001C38.2576 105.464 37.9834 100.939 37.9834 100.939C37.9834 100.939 40.3665 105.001 41.4612 108.539Z" fill="#128046"/>
<path d="M39.4161 108.657C40.877 111.323 41.0301 112.583 40.4837 112.795C39.9373 113.007 38.8979 112.092 37.437 109.426C35.9761 106.76 35.1924 103.14 35.1924 103.14C35.1924 103.14 37.9553 105.991 39.4161 108.657Z" fill="#128046"/>
<path d="M47.7498 107.826C46.7007 111.374 45.7997 112.722 45.2156 112.6C44.6314 112.478 44.5859 110.932 45.635 107.384C46.6842 103.835 49.0141 99.7527 49.0141 99.7527C49.0141 99.7527 48.799 104.279 47.7498 107.826Z" fill="#128046"/>
<path d="M43.6698 107.582C43.9827 111.229 43.6233 112.746 43.0236 112.782C42.424 112.819 41.8088 111.361 41.4959 107.715C41.183 104.069 41.8902 99.5784 41.8902 99.5784C41.8902 99.5784 43.3569 103.937 43.6698 107.583V107.582Z" fill="#128046"/>
<path d="M45.7656 108.341C45.3752 111.981 44.73 113.43 44.1303 113.385C43.5307 113.339 43.2042 111.817 43.5946 108.176C43.985 104.535 45.5447 100.199 45.5447 100.199C45.5447 100.199 46.156 104.7 45.7656 108.341Z" fill="#128046"/>
<path d="M48.5915 109.908C47.7177 111.965 46.902 112.666 46.3353 112.496C45.7685 112.325 45.6659 111.348 46.5387 109.291C47.4125 107.234 49.4982 105.047 49.4982 105.047C49.4982 105.047 49.4643 107.851 48.5905 109.908H48.5915Z" fill="#128046"/>
<path d="M37.7604 109.816C39.4441 112.091 39.663 113.264 39.0856 113.566C38.5082 113.868 37.3535 113.186 35.6698 110.912C33.9861 108.637 32.9883 105.33 32.9883 105.33C32.9883 105.33 36.0767 107.541 37.7604 109.816Z" fill="#128046"/>
<path d="M30.8455 119.063C31.5672 121.081 32.2405 121.769 32.7084 121.601C33.1763 121.434 33.2616 120.476 32.5399 118.458C31.8181 116.44 30.0957 114.294 30.0957 114.294C30.0957 114.294 30.1238 117.045 30.8455 119.063Z" fill="#128046"/>
<path d="M32.5291 118.085C32.283 120.213 32.5833 121.128 33.0764 121.185C33.5695 121.242 34.0704 120.419 34.3164 118.291C34.5625 116.163 33.9667 113.476 33.9667 113.476C33.9667 113.476 32.7742 115.956 32.5281 118.085H32.5291Z" fill="#128046"/>
<path d="M34.0429 119.034C33.4539 121.333 33.6031 122.37 34.0846 122.494C34.5661 122.617 35.1967 121.779 35.7857 119.481C36.3747 117.182 36.2188 114.169 36.2188 114.169C36.2188 114.169 34.6319 116.735 34.0429 119.034Z" fill="#128046"/>
<path d="M36.055 118.612C35.3642 119.961 35.4417 120.695 35.8845 120.921C36.3272 121.147 36.9675 120.78 37.6573 119.43C38.348 118.081 38.3838 116.033 38.3838 116.033C38.3838 116.033 36.7447 117.261 36.055 118.611V118.612Z" fill="#128046"/>
<path d="M29.5103 119.765C30.0198 121.19 30.6069 121.636 31.0748 121.468C31.5427 121.301 31.7142 120.585 31.2046 119.16C30.6951 117.735 29.2303 116.31 29.2303 116.31C29.2303 116.31 29.0007 118.341 29.5103 119.766V119.765Z" fill="#128046"/>
<path d="M68.3 64.9899C68.8754 67.035 69.4654 67.7499 69.9042 67.6017C70.3431 67.4535 70.4642 66.4992 69.8887 64.4542C69.3133 62.4091 67.8214 60.1946 67.8214 60.1946C67.8214 60.1946 67.7255 62.9439 68.301 64.9899H68.3Z" fill="#128046"/>
<path d="M69.7597 64.2712C69.4972 66.3472 69.8885 67.2665 70.5027 67.3566C71.1179 67.4467 71.7234 66.6727 71.9859 64.5967C72.2484 62.5206 71.454 59.8391 71.454 59.8391C71.454 59.8391 70.0222 62.1951 69.7597 64.2712Z" fill="#128046"/>
<path d="M71.8244 64.649C71.3545 66.4673 71.4834 67.3053 71.8777 67.4235C72.272 67.5417 72.7844 66.8965 73.2533 65.0781C73.7232 63.2598 73.5778 60.8389 73.5778 60.8389C73.5778 60.8389 72.2933 62.8306 71.8234 64.649H71.8244Z" fill="#128046"/>
<path d="M72.8602 65.089C72.2276 66.4404 72.2673 67.1563 72.6345 67.3587C73.0016 67.5612 73.5577 67.1737 74.1903 65.8223C74.8229 64.4709 74.9265 62.4646 74.9265 62.4646C74.9265 62.4646 73.4938 63.7375 72.8612 65.089H72.8602Z" fill="#128046"/>
<path d="M66.7802 65.7884C67.7412 67.1543 68.428 67.4798 68.7923 67.194C69.1565 66.9083 69.0606 66.1207 68.0996 64.7547C67.1396 63.3888 65.3135 62.2495 65.3135 62.2495C65.3135 62.2495 65.8192 64.4234 66.7802 65.7884Z" fill="#128046"/>
<path d="M55.0106 95.1066C55.7323 97.1245 56.4056 97.8123 56.8735 97.6447C57.3414 97.4771 57.4266 96.519 56.7049 94.5011C55.9832 92.4832 54.2607 90.3374 54.2607 90.3374C54.2607 90.3374 54.2888 93.0887 55.0106 95.1066Z" fill="#128046"/>
<path d="M56.6951 94.1284C56.449 96.2567 56.7493 97.1712 57.2424 97.2284C57.7365 97.2856 58.2364 96.4631 58.4824 94.3347C58.7285 92.2064 58.1327 89.52 58.1327 89.52C58.1327 89.52 56.9402 92 56.6941 94.1284H56.6951Z" fill="#128046"/>
<path d="M58.353 94.5033C57.8299 96.5435 58.0072 97.4754 58.4886 97.5984C58.9701 97.7215 59.5737 96.99 60.0968 94.9499C60.6199 92.9097 60.3826 90.2117 60.3826 90.2117C60.3826 90.2117 58.8761 92.464 58.354 94.5033H58.353Z" fill="#128046"/>
<path d="M60.22 94.6552C59.5293 96.0047 59.6068 96.739 60.0495 96.9647C60.4922 97.1905 61.1326 96.8233 61.8223 95.4738C62.513 94.1244 62.5489 92.0764 62.5489 92.0764C62.5489 92.0764 60.9097 93.3048 60.22 94.6543V94.6552Z" fill="#128046"/>
<path d="M53.6773 95.8091C54.1868 97.2341 54.7739 97.6797 55.2418 97.5121C55.7097 97.3445 55.8812 96.6286 55.3716 95.2036C54.862 93.7786 53.3973 92.3535 53.3973 92.3535C53.3973 92.3535 53.1677 94.385 53.6773 95.81V95.8091Z" fill="#128046"/>
<path d="M61.9253 84.6219C62.6461 86.6369 63.3784 87.3024 63.92 87.1087C64.4615 86.9149 64.6058 85.9365 63.8861 83.9215C63.1653 81.9065 61.3121 79.812 61.3121 79.812C61.3121 79.812 61.2065 82.6069 61.9263 84.6219H61.9253Z" fill="#128046"/>
<path d="M64.2195 83.7692C63.9734 85.8976 64.2738 86.8121 64.7668 86.8693C65.2609 86.9264 65.7608 86.1039 66.0069 83.9756C66.2529 81.8472 65.6571 79.1609 65.6571 79.1609C65.6571 79.1609 64.4646 81.6409 64.2185 83.7692H64.2195Z" fill="#128046"/>
<path d="M66.0178 84.7236C65.3271 86.0731 65.4046 86.8074 65.8473 87.0331C66.2901 87.2588 66.9304 86.8917 67.6202 85.5422C68.3109 84.1927 68.3467 82.1448 68.3467 82.1448C68.3467 82.1448 66.7076 83.3732 66.0178 84.7226V84.7236Z" fill="#128046"/>
<path d="M60.7433 85.5403C61.4263 86.8907 62.0647 87.2588 62.5074 87.0351C62.9511 86.8113 63.0315 86.0779 62.3485 84.7285C61.6656 83.378 60.0342 82.1467 60.0342 82.1467C60.0342 82.1467 60.0603 84.1908 60.7433 85.5412V85.5403Z" fill="#128046"/>
<path d="M66.1373 123.069C66.3185 122.878 66.5781 122.862 66.9336 122.956C66.9317 122.835 66.9317 122.711 66.9336 122.586C66.6449 122.221 66.3717 121.764 66.5694 121.489C66.6004 121.445 66.7215 121.292 67.0101 121.318C67.0518 120.898 67.108 120.488 67.1768 120.09C66.7738 118.783 66.7215 118.137 67.047 117.965C67.1806 117.895 67.3725 117.885 67.6582 118.065C67.6825 117.986 67.7076 117.907 67.7328 117.83C67.5003 117.256 67.2281 116.432 67.605 116.153C67.6873 116.092 67.946 115.958 68.3606 116.238C68.4022 116.15 68.4449 116.063 68.4875 115.978C68.2434 115.137 68.3461 114.7 68.5611 114.599C68.6938 114.537 68.936 114.516 69.216 114.759C69.8699 113.844 70.5597 113.325 71.1332 113.325C71.7658 113.325 72.4449 113.886 73.0765 114.886C73.2228 114.747 73.371 114.676 73.5124 114.725C73.8379 114.834 73.8544 115.664 73.8156 116.31C73.8835 116.467 73.9503 116.628 74.0152 116.796C74.3029 116.538 74.4521 116.546 74.5819 116.601C74.796 116.692 74.7805 117.464 74.5393 118.349C74.5635 118.432 74.5877 118.517 74.611 118.602C74.9704 118.194 75.0818 118.282 75.1971 118.321C75.5468 118.438 75.3453 119.755 75.1186 120.864C75.1506 121.044 75.1816 121.227 75.2097 121.412C75.4557 122.987 75.3937 124.237 75.1264 125.216C75.4606 125.157 75.6127 125.189 75.6631 125.263C75.8045 125.472 75.2688 126.215 74.3601 126.817C73.494 127.952 72.2017 128.372 71.0227 128.372C69.3603 128.372 68.0041 127.492 67.3521 125.63C66.302 124.623 65.7827 123.442 66.1354 123.071L66.1373 123.069Z" fill="#128046"/>
<path d="M74.5466 123.5C74.5466 123.5 74.5369 123.5 74.5321 123.499C74.4788 123.491 74.443 123.441 74.4507 123.389C74.5854 122.462 74.4681 122.141 74.3858 122.032C74.35 121.984 74.3083 121.958 74.257 121.952C73.9809 121.914 73.5982 122.564 73.4558 122.884C73.4355 122.93 73.3851 122.952 73.3376 122.938C73.2901 122.922 73.262 122.875 73.2727 122.826C73.3405 122.498 73.3822 122.096 73.1942 122.039C72.9985 121.98 72.5917 122.257 72.2981 122.762C72.271 122.809 72.2119 122.824 72.1654 122.797C72.1189 122.77 72.1034 122.711 72.1305 122.665C72.4541 122.107 72.9365 121.758 73.2504 121.853C73.4558 121.915 73.5217 122.115 73.5246 122.349C73.7144 122.048 73.9915 121.721 74.2831 121.76C74.3868 121.774 74.474 121.827 74.5408 121.916C74.719 122.152 74.753 122.657 74.6425 123.417C74.6357 123.466 74.5941 123.501 74.5466 123.501V123.5Z" fill="#D3BBA3"/>
<path d="M68.4756 126.237C68.4281 126.237 68.3865 126.202 68.3797 126.153C68.2857 125.508 68.3158 125.079 68.4678 124.876C68.5269 124.798 68.6035 124.751 68.6955 124.739C68.9338 124.707 69.1624 124.957 69.3242 125.202C69.3349 125.021 69.3969 124.869 69.5645 124.818C69.8367 124.737 70.2494 125.033 70.5255 125.51C70.5526 125.556 70.5371 125.616 70.4906 125.643C70.4441 125.67 70.385 125.654 70.3579 125.608C70.1138 125.187 69.7805 124.957 69.6197 125.004C69.5054 125.039 69.485 125.269 69.5645 125.65C69.5742 125.699 69.5461 125.747 69.4996 125.762C69.4521 125.777 69.4017 125.754 69.3814 125.709C69.2361 125.379 68.9261 124.902 68.7217 124.931C68.6819 124.936 68.6509 124.956 68.6228 124.993C68.555 125.083 68.4582 125.349 68.5715 126.125C68.5792 126.178 68.5424 126.227 68.4901 126.235C68.4853 126.235 68.4804 126.236 68.4756 126.236V126.237Z" fill="#D3BBA3"/>
<path d="M69.042 119.665C68.9945 119.665 68.9529 119.63 68.9461 119.581C68.8521 118.936 68.8822 118.507 69.0343 118.304C69.0933 118.226 69.1699 118.179 69.2619 118.167C69.4993 118.135 69.7288 118.385 69.8906 118.63C69.9013 118.449 69.9633 118.297 70.1309 118.246C70.4031 118.165 70.8158 118.461 71.0919 118.938C71.119 118.984 71.1035 119.044 71.057 119.071C71.0105 119.098 70.9514 119.082 70.9243 119.036C70.6802 118.615 70.3469 118.385 70.1861 118.432C70.0718 118.467 70.0514 118.697 70.1309 119.078C70.1406 119.127 70.1125 119.175 70.066 119.19C70.0185 119.205 69.9681 119.182 69.9478 119.137C69.8025 118.807 69.4934 118.33 69.2881 118.359C69.2483 118.364 69.2173 118.384 69.1892 118.421C69.1214 118.511 69.0246 118.777 69.1379 119.553C69.1457 119.606 69.1088 119.655 69.0565 119.663C69.0517 119.663 69.0468 119.664 69.042 119.664V119.665Z" fill="#D3BBA3"/>
<path d="M112.975 9.51221C118.862 9.51221 123.634 14.2843 123.634 20.1714C123.634 26.0585 112.975 39.0486 112.975 39.0486C112.975 39.0486 102.315 26.0576 102.315 20.1714C102.315 14.2853 107.088 9.51221 112.975 9.51221Z" fill="#EF5E4E"/>
<path d="M113.867 27.4058C117.865 26.9135 120.707 23.2734 120.214 19.2753C119.722 15.2773 116.082 12.4354 112.084 12.9277C108.086 13.42 105.244 17.0601 105.736 21.0582C106.228 25.0562 109.869 27.8981 113.867 27.4058Z" fill="#FDF5F5"/>
<path d="M158.147 169.917L166.087 169.797L163.721 159.561L155.63 160.91L158.147 169.917Z" fill="#E2A18D"/>
<path d="M147.055 175.187H167.614L165.721 167.328H157.667L151.843 169.105C148.988 169.878 147.029 172.367 147.055 175.187Z" fill="#FFD092"/>
<path d="M154.58 167.366C154.22 167.366 153.893 167.199 153.681 166.908C153.464 166.611 153.407 166.241 153.525 165.893L153.578 165.736C153.695 165.389 153.964 165.129 154.316 165.023C154.668 164.918 155.035 164.987 155.324 165.214L158.001 167.313L154.599 167.365C154.593 167.365 154.587 167.365 154.581 167.365L154.58 167.366ZM154.639 165.171C154.549 165.171 154.459 165.183 154.371 165.21C154.081 165.297 153.859 165.512 153.762 165.799L153.709 165.956C153.612 166.244 153.659 166.549 153.837 166.794C154.017 167.039 154.29 167.181 154.596 167.173L157.451 167.13L155.204 165.369C155.039 165.239 154.841 165.172 154.64 165.172L154.639 165.171Z" fill="#84524D"/>
<path d="M160.824 169.472C160.579 169.472 160.341 169.39 160.141 169.233L157.463 167.133L160.865 167.082C161.231 167.076 161.567 167.244 161.783 167.54C161.999 167.837 162.056 168.207 161.939 168.554L161.885 168.711C161.768 169.059 161.499 169.319 161.147 169.424C161.04 169.456 160.931 169.472 160.824 169.472H160.824ZM158.013 167.319L160.26 169.08C160.498 169.267 160.801 169.326 161.093 169.238C161.383 169.151 161.605 168.937 161.702 168.649L161.755 168.492C161.852 168.205 161.805 167.9 161.627 167.654C161.45 167.413 161.18 167.276 160.883 167.276C160.878 167.276 160.873 167.276 160.868 167.276L158.013 167.318V167.319Z" fill="#84524D"/>
<path d="M121.091 171.449L129.029 171.329L128.784 159.561L120.694 160.91L121.091 171.449Z" fill="#E2A18D"/>
<path d="M110.157 175.187H130.716L128.945 167.328H120.768L114.944 169.105C112.089 169.878 110.13 172.367 110.157 175.187H110.157Z" fill="#FFD092"/>
<path d="M117.682 167.366C117.322 167.366 116.994 167.199 116.782 166.908C116.566 166.611 116.509 166.241 116.626 165.893L116.679 165.736C116.797 165.389 117.066 165.129 117.418 165.023C117.769 164.918 118.136 164.987 118.425 165.214L121.103 167.313L117.7 167.365C117.695 167.365 117.689 167.365 117.683 167.365L117.682 167.366ZM117.74 165.171C117.651 165.171 117.561 165.183 117.472 165.21C117.181 165.297 116.959 165.512 116.862 165.799L116.809 165.956C116.712 166.244 116.76 166.549 116.938 166.794C117.114 167.035 117.385 167.173 117.682 167.173C117.687 167.173 117.692 167.173 117.697 167.173L120.551 167.13L118.305 165.369C118.139 165.239 117.942 165.172 117.74 165.172V165.171Z" fill="#84524D"/>
<path d="M123.927 169.472C123.682 169.472 123.444 169.39 123.243 169.233L120.565 167.133L123.968 167.082C124.332 167.076 124.669 167.244 124.886 167.54C125.102 167.837 125.159 168.207 125.042 168.554L124.989 168.711C124.872 169.059 124.602 169.319 124.251 169.424C124.143 169.456 124.035 169.472 123.926 169.472H123.927ZM121.116 167.319L123.362 169.08C123.601 169.267 123.905 169.325 124.195 169.238C124.486 169.151 124.708 168.937 124.805 168.649L124.858 168.492C124.955 168.205 124.907 167.9 124.729 167.654C124.553 167.413 124.283 167.276 123.985 167.276C123.98 167.276 123.975 167.276 123.971 167.276L121.116 167.318V167.319Z" fill="#84524D"/>
<path d="M147.663 92.2619C147.663 92.2619 152.566 103.172 155.876 116.411C159.186 129.65 165.069 162.871 165.069 162.871H155.998C155.998 162.871 138.1 142.399 136.506 114.327L130.99 92.1389L147.662 92.2619H147.663Z" fill="#D2412B"/>
<path d="M140.307 118.495C140.307 118.495 130.991 131.979 130.255 162.135H119.835C119.835 162.135 112.236 145.219 116.525 127.443C120.816 109.669 127.803 90.5454 127.803 90.5454H138.959L140.307 118.495Z" fill="#D2412B"/>
<path d="M152.547 72.1274C147.729 73.9661 147.694 83.7418 148.3 94.9116C148.425 97.2162 148.951 100.609 150.24 101.574C155.005 105.14 167.022 104.006 169.7 98.0639C172.218 92.4713 168.283 81.0622 163.69 75.0899C160.869 71.4231 155.486 71.0056 152.548 72.1274H152.547Z" fill="#EFBC73"/>
<path d="M133.686 78.7807C128.963 79.7649 115.506 83.4394 114.026 77.7722C112.801 73.0854 126.064 70.0851 130.691 68.8035C131.689 72.1292 132.688 75.4549 133.686 78.7797V78.7807Z" fill="#E2A18D"/>
<path d="M122.368 73.6774C122.368 73.6774 111.758 67.3156 108.113 65.4381C104.284 63.4667 98.345 61.1126 98.0263 61.9477C97.8451 62.4234 98.5881 62.9116 100.663 64.0857C100.499 64.1313 100.035 64.3919 99.9396 64.8608C99.7971 65.5544 100.327 65.8227 100.362 65.8692C100.305 65.8799 99.6635 66.0397 99.4891 66.4873C99.2934 66.992 99.491 67.4076 99.7942 67.705C99.6538 67.737 99.0803 67.9685 98.935 68.4074C98.746 68.978 99.1849 69.4788 99.6286 69.6987C100.444 70.1037 102.7 71.1538 103.82 71.8619C106.028 73.255 113.203 79.2545 116.925 80.4238C116.814 77.0486 122.366 73.6774 122.366 73.6774H122.368Z" fill="#E2A18D"/>
<path d="M105.861 69.6424C105.836 69.6424 105.81 69.6327 105.791 69.6123C105.123 68.9081 104.901 68.1611 104.723 67.5615C104.538 66.9366 104.423 66.6092 104.03 66.5792C103.636 66.5491 103.201 66.3312 102.739 65.932C102.584 65.7984 102.53 65.5872 102.602 65.3944C102.674 65.1997 102.854 65.0737 103.062 65.0737H105.861C105.915 65.0737 105.958 65.1173 105.958 65.1706C105.958 65.2239 105.915 65.2675 105.861 65.2675H103.062C102.91 65.2675 102.819 65.3682 102.783 65.4622C102.749 65.5542 102.752 65.6879 102.865 65.7858C103.289 66.152 103.698 66.3602 104.045 66.3864C104.588 66.428 104.73 66.9037 104.909 67.5063C105.082 68.0856 105.296 68.8073 105.931 69.4787C105.968 69.5174 105.966 69.5784 105.927 69.6153C105.909 69.6327 105.885 69.6414 105.86 69.6414L105.861 69.6424Z" fill="#363E44"/>
<path d="M101.268 70.0067C101.254 70.0067 101.239 70.0038 101.225 69.9961C101.177 69.9719 101.158 69.9137 101.181 69.8663C101.485 69.2569 101.265 68.509 100.679 68.1632L100.198 67.8784C100.155 67.8532 100.139 67.7999 100.159 67.7544C100.179 67.7088 100.231 67.6875 100.278 67.703L101.321 68.0508C101.687 68.1729 102.087 68.0159 102.273 67.6779C102.378 67.488 102.401 67.2681 102.337 67.0608C102.274 66.8534 102.132 66.6839 101.94 66.5841L100.641 65.9118C100.595 65.8886 100.576 65.8324 100.597 65.7859C100.618 65.7394 100.673 65.7171 100.72 65.7355L101.379 65.9912C101.69 66.1123 102.047 65.9593 102.175 65.6502C102.295 65.3586 102.177 65.0244 101.901 64.8733L101.003 64.3792C100.956 64.3531 100.939 64.295 100.965 64.2475C100.99 64.201 101.05 64.1835 101.097 64.2097L101.995 64.7038C102.357 64.9033 102.512 65.3422 102.354 65.7248C102.235 66.0145 101.962 66.1995 101.666 66.2247L102.029 66.4127C102.268 66.5367 102.443 66.7469 102.522 67.0046C102.6 67.2623 102.572 67.5354 102.441 67.7718C102.211 68.1913 101.713 68.386 101.259 68.2349L100.983 68.1428C101.499 68.5807 101.665 69.3305 101.355 69.9535C101.337 69.9874 101.303 70.0067 101.267 70.0067H101.268Z" fill="#363E44"/>
<path d="M161.343 81.0796C164.08 85.0525 172.68 96.0362 168.029 99.5954C164.182 102.539 156.279 91.4743 153.306 87.7049C155.985 85.4961 158.664 83.2883 161.343 81.0796Z" fill="#E2A18D"/>
<path d="M164.037 82.1696C164.037 82.1696 153.212 71.1045 144.645 68.9344C137.927 67.2333 132.267 67.1636 123.707 70.0611L125.775 81.6203L127.68 80.916C126.636 83.985 126.056 85.4682 124.457 89.7627L152.871 96.696L155.173 90.7479L156.889 92.3124L164.037 82.1686V82.1696Z" fill="#7363BA"/>
<path d="M158.527 94.4346C154.636 97.5433 145.111 104.412 144.207 105.12C142.519 106.442 138.842 109.161 139.492 110.482C139.708 110.921 140.217 111.198 140.801 111.233C140.622 111.834 140.813 112.479 141.279 112.858C141.891 113.357 142.646 113.129 142.702 113.111C142.503 113.555 142.537 114.06 142.805 114.411C143.176 114.897 143.951 115.032 144.578 114.64C144.591 114.777 144.652 115.265 145.054 115.619C145.498 116.012 146.18 116.082 146.78 115.795C148.281 114.621 150.92 113.173 153.97 111.25C161.135 106.733 164.14 104.418 167.206 101.608C168.396 100.518 170.119 97.9541 169.02 94.5392C165.495 94.4975 162.053 94.4782 158.527 94.4365V94.4346Z" fill="#E2A18D"/>
<path d="M157.052 95.6988C157.023 95.6988 156.995 95.6862 156.976 95.661C156.943 95.6184 156.95 95.5583 156.992 95.5254C157.999 94.7407 158.601 94.2699 158.944 93.9986C158.986 93.9657 159.047 93.9725 159.081 94.0141C159.114 94.0558 159.107 94.1168 159.065 94.1498C158.721 94.422 158.119 94.8928 157.112 95.6775C157.095 95.691 157.073 95.6978 157.053 95.6978L157.052 95.6988Z" fill="#363E44"/>
<path d="M142.291 109.244C142.265 109.244 142.238 109.233 142.219 109.212L141.589 108.508C141.553 108.469 141.557 108.408 141.597 108.372C141.637 108.336 141.698 108.34 141.733 108.38L142.363 109.083C142.399 109.123 142.395 109.184 142.355 109.219C142.337 109.236 142.314 109.244 142.29 109.244H142.291Z" fill="#363E44"/>
<path d="M143.886 111.031C143.86 111.031 143.833 111.02 143.813 110.999L143.184 110.296C143.148 110.256 143.152 110.195 143.192 110.159C143.231 110.123 143.292 110.127 143.328 110.167L143.958 110.87C143.994 110.91 143.99 110.971 143.95 111.007C143.932 111.023 143.908 111.031 143.885 111.031H143.886Z" fill="#363E44"/>
<path d="M145.49 112.868C145.464 112.868 145.436 112.857 145.417 112.836L144.787 112.133C144.751 112.093 144.755 112.032 144.795 111.996C144.835 111.96 144.896 111.964 144.932 112.004L145.561 112.707C145.597 112.747 145.593 112.808 145.554 112.844C145.535 112.86 145.512 112.868 145.489 112.868H145.49Z" fill="#363E44"/>
<path d="M146.978 114.504C146.952 114.504 146.925 114.494 146.905 114.472L146.276 113.769C146.24 113.729 146.244 113.668 146.283 113.632C146.323 113.596 146.385 113.6 146.42 113.64L147.05 114.343C147.085 114.383 147.082 114.444 147.042 114.48C147.023 114.496 147 114.504 146.977 114.504H146.978Z" fill="#363E44"/>
<path d="M154.841 74.2886C153.413 76.1496 151.592 79.4017 150.716 85.563C149.863 91.5702 151.153 97.2064 151.982 99.3968C150.506 100.487 150.052 100.856 148.733 101.79C148.006 98.4242 146.199 91.9839 146.859 85.9795C147.597 79.2845 149.292 74.9299 150.908 71.6895C152.612 71.6895 154.143 73.2927 154.839 74.2876L154.841 74.2886Z" fill="#E0AA63"/>
<path d="M139.647 69.4489C139.315 70.564 141.138 72.0907 143.719 72.8599C146.3 73.6291 148.662 73.3491 148.994 72.2351C149.326 71.121 147.503 69.5933 144.922 68.8241C142.342 68.0549 139.98 68.3349 139.647 69.4489Z" fill="#E2A18D"/>
<path d="M140.661 65.4323C141.743 66.8147 146.403 65.3257 146.403 65.3257L150.001 61.3519C150.706 58.9862 149.361 56.4965 146.995 55.7913C144.629 55.086 142.14 56.4316 141.434 58.7973C141.434 58.7973 139.561 64.0237 140.662 65.4323H140.661Z" fill="#E2A18D"/>
<path d="M141.594 70.5847L146.784 72.1321L150.012 61.3035L144.822 59.7561L141.594 70.5847Z" fill="#E2A18D"/>
<path d="M141.59 60.0703C141.59 60.0703 140.013 60.9713 139.978 61.322C139.936 61.7414 141.202 62.3827 141.202 62.3827C141.202 62.3827 141.557 60.0635 141.59 60.0703Z" fill="#E2A18D"/>
<path d="M145.51 61.0402C145.51 61.0402 144.907 60.4405 144.043 60.1828C143.859 60.1276 143.767 61.7028 143.967 61.6718C144.844 61.5342 145.51 61.0402 145.51 61.0402Z" fill="white"/>
<mask id="mask0_297_6063" style="mask-type:luminance" maskUnits="userSpaceOnUse" x="141" y="60" width="5" height="2">
<path d="M145.51 61.0399C145.51 61.0399 144.624 60.1583 143.459 60.074C142.294 59.9897 141.291 60.7347 141.291 60.7347C141.291 60.7347 142.176 61.6163 143.342 61.7006C144.507 61.7849 145.51 61.0399 145.51 61.0399Z" fill="white"/>
</mask>
<g mask="url(#mask0_297_6063)">
<path d="M144.018 60.1344C143.617 59.3923 142.69 59.1162 141.948 59.5173C141.206 59.9184 140.929 60.8455 141.331 61.5875C141.732 62.3296 142.659 62.6057 143.401 62.2046C144.143 61.8036 144.419 60.8765 144.018 60.1344Z" fill="#363E44"/>
</g>
<path d="M142.22 63.5637C142.012 63.5637 141.808 63.4736 141.668 63.3099C141.633 63.2692 141.638 63.2082 141.678 63.1733C141.719 63.1384 141.78 63.1433 141.815 63.184C141.952 63.3428 142.168 63.4077 142.367 63.3486C142.559 63.2925 142.705 63.1278 142.74 62.9292C142.749 62.8769 142.799 62.841 142.853 62.8507C142.905 62.8594 142.941 62.9098 142.931 62.9631C142.884 63.2334 142.684 63.4581 142.422 63.5356C142.356 63.555 142.288 63.5647 142.22 63.5647V63.5637Z" fill="#363E44"/>
<path d="M142.489 66.1909C142.283 66.1909 142.083 66.1813 141.893 66.1599C141.84 66.1541 141.802 66.1057 141.808 66.0524C141.814 65.9991 141.861 65.9604 141.916 65.9672C143.641 66.1638 146.325 65.3162 146.351 65.3074C146.402 65.291 146.456 65.3191 146.473 65.3704C146.489 65.4218 146.461 65.476 146.41 65.4925C146.31 65.5244 144.198 66.1919 142.489 66.1919V66.1909Z" fill="#363E44"/>
<path d="M150.988 64.1303C151.903 63.0512 151.891 60.4452 151.106 58.5183C150.094 56.0335 147.163 54.5668 144.793 54.7664C144.211 54.8158 142.88 55.0996 142.438 55.9298C142.094 56.576 142.75 57.9187 143.861 58.3052C145.423 58.8477 147.52 59.2711 147.508 61.226C147.461 68.388 149.395 66.0078 150.988 64.1294V64.1303Z" fill="#363E44"/>
<path d="M165.02 68.1858C168.682 64.5237 168.682 58.5862 165.02 54.924C161.358 51.2618 155.42 51.2618 151.758 54.924C148.096 58.5862 148.096 64.5237 151.758 68.1859C155.42 71.848 161.358 71.848 165.02 68.1858Z" fill="#363E44"/>
<path d="M157.347 66.0032C153.239 66.0032 149.896 62.66 149.896 58.5515C149.896 54.443 153.239 51.0999 157.347 51.0999C161.456 51.0999 164.799 54.443 164.799 58.5515C164.799 62.66 161.456 66.0032 157.347 66.0032ZM157.347 51.2926C153.345 51.2926 150.089 54.5486 150.089 58.5505C150.089 62.5525 153.345 65.8084 157.347 65.8084C161.349 65.8084 164.605 62.5525 164.605 58.5505C164.605 54.5486 161.349 51.2926 157.347 51.2926Z" fill="#363E44"/>
<path d="M148.62 63.3746C147.656 64.0663 146.533 63.892 146.157 63.3378C145.727 62.7043 146.247 61.533 147.098 61.1271C147.727 60.8268 148.783 60.8288 149.161 61.5427C149.449 62.0881 149.255 62.8864 148.621 63.3746H148.62Z" fill="#E2A18D"/>
<path d="M147.323 62.4796C147.275 62.4796 147.233 62.4438 147.227 62.3944C147.221 62.3411 147.258 62.2926 147.312 62.2868L148.378 62.1551C148.432 62.1483 148.48 62.1861 148.486 62.2394C148.493 62.2926 148.455 62.3411 148.401 62.3469L147.335 62.4786C147.335 62.4786 147.327 62.4786 147.323 62.4786V62.4796Z" fill="#363E44"/>
</svg>
